<?xml version="1.0" encoding="UTF-8"?>
<svg version="1.1" xmlns="http://www.w3.org/2000/svg" width="512" height="512">
<path d="M0 0 C3.8520631 2.59832558 7.18480413 5.8701434 10.5859375 9.01953125 C13.66595917 11.76623551 16.85817508 14.29483418 20.125 16.8125 C25.9404418 21.30842492 31.51487376 26.02881158 37.04614258 30.8684082 C41.44107954 34.71076704 45.90304682 38.45141074 50.4375 42.12890625 C60.00927157 49.89350741 69.51056135 57.74311238 78.90136719 65.72558594 C84.0237255 70.0742715 89.22364553 74.32433759 94.4375 78.5625 C100.88123941 83.80039344 107.26766662 89.0963025 113.59667969 94.47167969 C118.82200436 98.90312714 124.12245979 103.23918741 129.4375 107.5625 C132.18007699 109.80500597 134.92120887 112.04908791 137.65625 114.30078125 C139.57600091 115.861927 141.51490489 117.39971024 143.46875 118.91796875 C144.4484375 119.68753906 145.428125 120.45710938 146.4375 121.25 C147.324375 121.93449219 148.21125 122.61898437 149.125 123.32421875 C152.3069215 126.40401776 154.09025525 129.51988383 154.8359375 133.90625 C154.77494873 139.5172168 154.12728657 143.78230044 150.04296875 148.00390625 C145.29261958 152.2251026 141.82446061 152.68942818 135.65917969 152.67602539 C134.4982782 152.67594986 133.33737671 152.67587433 132.14129639 152.67579651 C130.2692453 152.66805458 130.2692453 152.66805458 128.359375 152.66015625 C126.43680878 152.65803383 126.43680878 152.65803383 124.47540283 152.65586853 C121.0756636 152.65205901 117.6759674 152.64224214 114.27624512 152.63116455 C110.803961 152.62091674 107.3316699 152.6163637 103.859375 152.61132812 C97.05206571 152.60061841 90.24478492 152.58356084 83.4375 152.5625 C83.45321045 153.77309082 83.4689209 154.98368164 83.48510742 156.23095703 C83.53954969 160.73723658 83.57390207 165.24348724 83.60229492 169.75 C83.61734899 171.69764094 83.6377968 173.64524816 83.66381836 175.59277344 C83.70035053 178.39787128 83.71726033 181.20251954 83.73046875 184.0078125 C83.74595261 184.87366974 83.76143646 185.73952698 83.77738953 186.63162231 C83.77878616 191.68825278 83.28454945 195.19393817 80.4375 199.5625 C77.51805596 201.02222202 74.59037306 200.70694976 71.39041138 200.70294189 C70.28952236 200.70739858 70.28952236 200.70739858 69.16639316 200.7119453 C66.69441348 200.72065272 64.22248211 200.72214226 61.75048828 200.72363281 C59.98330583 200.72825952 58.21612437 200.73328398 56.44894409 200.73867798 C51.63903037 200.75181761 46.82913062 200.7582499 42.01920176 200.76268864 C39.0163787 200.76561665 36.0135595 200.76972092 33.01073837 200.77419281 C23.62200695 200.78787142 14.23328428 200.79753648 4.84454358 200.8013947 C-6.00540852 200.80587749 -16.85523476 200.82343409 -27.70514858 200.8523953 C-36.08395329 200.87398672 -44.46272252 200.88409761 -52.84155476 200.88543582 C-57.84956705 200.88648561 -62.8574611 200.89243031 -67.86544418 200.91025543 C-72.57515795 200.92669244 -77.28466404 200.92891297 -81.99439621 200.92011642 C-83.72460993 200.91934372 -85.45483462 200.9237194 -87.18502045 200.93357468 C-89.544078 200.94622577 -91.90239237 200.9404552 -94.26144409 200.92999268 C-94.94879918 200.93804908 -95.63615427 200.94610548 -96.3443383 200.95440602 C-99.32893523 200.92337127 -101.32886526 200.69284076 -103.95631599 199.22703171 C-106.55999386 196.52877027 -106.68675033 193.93786061 -106.67602539 190.36645508 C-106.67591209 189.10548759 -106.67591209 189.10548759 -106.67579651 187.81904602 C-106.67063522 186.91583115 -106.66547394 186.01261627 -106.66015625 185.08203125 C-106.6587413 184.15404221 -106.65732635 183.22605316 -106.65586853 182.26994324 C-106.65026937 179.30492942 -106.63771704 176.33999101 -106.625 173.375 C-106.61998489 171.36523547 -106.615422 169.35546975 -106.61132812 167.34570312 C-106.60030021 162.41793968 -106.58303617 157.49023263 -106.5625 152.5625 C-107.26105606 152.56916183 -107.95961212 152.57582367 -108.67933655 152.58268738 C-115.28466106 152.64296969 -121.88990803 152.68856096 -128.49544621 152.71793652 C-131.89088302 152.7335469 -135.28609121 152.75469932 -138.68139648 152.78881836 C-142.59095459 152.82785614 -146.50042232 152.84224753 -150.41015625 152.85546875 C-151.62083267 152.87095261 -152.83150909 152.88643646 -154.07887268 152.90238953 C-161.03548765 152.90377147 -166.84992888 152.83389114 -172.3046875 148.02734375 C-175.44989496 143.78673645 -176.73851098 141.57091907 -176.875 136.3125 C-176.91238281 135.37921875 -176.94976562 134.4459375 -176.98828125 133.484375 C-175.92909555 126.21583463 -170.08981982 122.16975391 -164.6875 117.875 C-163.9351709 117.2663208 -163.1828418 116.6576416 -162.40771484 116.03051758 C-156.5667772 111.31918942 -150.66516025 106.68400905 -144.75 102.06640625 C-140.96157717 99.10189757 -137.24278355 96.05528089 -133.52734375 93 C-124.9605773 85.95696671 -116.37102369 78.94470345 -107.625 72.125 C-101.62419693 67.44518255 -95.75287012 62.61891858 -89.89233398 57.76513672 C-84.80362617 53.55988913 -79.64900766 49.45112044 -74.44482422 45.39013672 C-70.08809655 41.98734539 -65.79732388 38.51129057 -61.52734375 35 C-52.24526533 27.36888414 -42.92392296 19.79044056 -33.45239258 12.39526367 C-29.13820437 9.02646277 -24.87949105 5.59402337 -20.6484375 2.12109375 C-14.34442008 -2.5892114 -7.27643865 -2.93610682 0 0 Z " fill="#CBF39F" transform="translate(270.5625,1.4375)"/>
<path d="M0 0 C0.71859509 -0.00382555 1.43719017 -0.00765109 2.17756087 -0.01159257 C4.58577922 -0.02191249 6.99375871 -0.01793238 9.4019928 -0.01396179 C11.12844056 -0.01830882 12.85488639 -0.02349194 14.58132935 -0.02944946 C19.27138297 -0.04285152 23.96135608 -0.0434168 28.65142512 -0.04088616 C32.56555315 -0.0398173 36.47966482 -0.04469764 40.39378935 -0.04949158 C49.62700499 -0.06059088 58.86017996 -0.06102176 68.09339905 -0.05497742 C77.62169715 -0.04893587 87.14984764 -0.06125227 96.67812055 -0.08254749 C104.85656519 -0.10015445 113.0349628 -0.10616629 121.2134257 -0.10290974 C126.0990297 -0.10109534 130.98452841 -0.10374872 135.87011528 -0.11762428 C140.46414418 -0.13018334 145.05794271 -0.12827678 149.651968 -0.11521339 C151.33821947 -0.11284389 153.02448706 -0.11559568 154.71072006 -0.12383652 C157.01241191 -0.13427426 159.3133265 -0.12622786 161.61499023 -0.11352539 C162.90307052 -0.11369313 164.1911508 -0.11386087 165.51826382 -0.1140337 C169.12293728 0.28885662 171.0005024 1.0861532 173.87098694 3.26069641 C176.38660137 7.45712095 176.16069695 11.93068528 176.14564514 16.68769836 C176.15075607 17.52413879 176.155867 18.36057922 176.16113281 19.22236633 C176.17500678 21.98131004 176.17407338 24.74000325 176.17176819 27.49897766 C176.17565696 29.42322888 176.179992 31.34747925 176.18475342 33.27172852 C176.19221138 37.30413088 176.19192787 41.33644569 176.18666077 45.36885071 C176.18087353 50.52355101 176.1977812 55.67789114 176.22100544 60.83253193 C176.23577585 64.80722126 176.23660986 68.78182457 176.23349571 72.75653648 C176.23400749 74.65624389 176.23921809 76.5559563 176.24930763 78.45563698 C176.26171585 81.11916235 176.25485377 83.78199564 176.24330139 86.44551086 C176.25094513 87.22240768 176.25858887 87.9993045 176.26646423 88.79974365 C176.21213358 94.49904128 175.46239478 100.46408904 171.41907215 104.82758045 C166.80630912 108.75306454 164.22170447 109.38864087 158.26841736 109.42805481 C157.58223269 109.4338482 156.89604801 109.43964158 156.18906987 109.44561052 C153.87845926 109.46371857 151.56787316 109.47455592 149.25721741 109.48530579 C147.6048968 109.49647809 145.95257848 109.50799132 144.30026245 109.51982117 C138.86293198 109.55642042 133.42557812 109.58160591 127.98817444 109.60444641 C127.06325652 109.60839228 126.13833859 109.61233814 125.18539286 109.61640358 C116.46249161 109.65282817 107.73958231 109.68427436 99.01663017 109.705513 C87.8584474 109.73308151 76.70090078 109.7838285 65.54298294 109.8659873 C57.69830284 109.92179317 49.85379524 109.95075126 42.00892365 109.95998621 C37.32356428 109.96624223 32.63895033 109.9843498 27.95380783 110.03137207 C23.5425832 110.07509534 19.13251011 110.08550994 14.72110558 110.07074356 C13.10540744 110.07107178 11.48965927 110.08331467 9.87415886 110.10859299 C-3.82639619 110.31158701 -3.82639619 110.31158701 -9.02839661 106.08503723 C-14.19318122 100.43351507 -14.42620324 94.79028832 -14.40367126 87.4889679 C-14.4087822 86.62805542 -14.41389313 85.76714294 -14.41915894 84.88014221 C-14.43300798 82.04728662 -14.43210213 79.21467549 -14.42979431 76.38179016 C-14.43368293 74.40694082 -14.43801795 72.43209231 -14.44277954 70.45724487 C-14.450231 66.32407414 -14.4499576 62.19098885 -14.44468689 58.05781555 C-14.43888422 52.76272732 -14.45584776 47.46798796 -14.47903156 42.17295742 C-14.49376304 38.09716754 -14.49464156 34.02146189 -14.49152184 29.9456501 C-14.49203503 27.99322377 -14.49727241 26.04079273 -14.50733376 24.08839226 C-14.51967366 21.35970715 -14.51292195 18.63170462 -14.50132751 15.9030304 C-14.51279312 14.69581078 -14.51279312 14.69581078 -14.52449036 13.46420288 C-14.48162271 8.89856739 -14.07948771 5.82309935 -11.12901306 2.26069641 C-7.53475739 -0.14795315 -4.24646753 0.00676976 0 0 Z " fill="#CCF49F" transform="translate(178.12901306152344,402.7393035888672)"/>
<path d="M0 0 C1.75 0.0625 1.75 0.0625 4 1 C7.45071711 5.60095615 8.618843 9.11698306 8.31640625 14.86328125 C7.61359108 19.60945283 5.57295009 22.69308739 2.0625 25.8125 C-2.32468863 28.94620616 -5.45483083 29.12509819 -10.77832031 29.11352539 C-11.9392218 29.11344986 -13.10012329 29.11337433 -14.29620361 29.11329651 C-16.1682547 29.10555458 -16.1682547 29.10555458 -18.078125 29.09765625 C-19.35983582 29.0962413 -20.64154663 29.09482635 -21.96209717 29.09336853 C-25.3618364 29.08955901 -28.7615326 29.07974214 -32.16125488 29.06866455 C-35.633539 29.05841674 -39.1058301 29.0538637 -42.578125 29.04882812 C-49.38543429 29.03811841 -56.19271508 29.02106084 -63 29 C-62.97643433 30.81588623 -62.97643433 30.81588623 -62.95239258 32.66845703 C-62.89795031 37.17473658 -62.86359793 41.68098724 -62.83520508 46.1875 C-62.82015101 48.13514094 -62.7997032 50.08274816 -62.77368164 52.03027344 C-62.73714947 54.83537128 -62.72023967 57.64001954 -62.70703125 60.4453125 C-62.69154739 61.31116974 -62.67606354 62.17702698 -62.66011047 63.06912231 C-62.65871384 68.12575278 -63.15295055 71.63143817 -66 76 C-68.91944404 77.45972202 -71.84712694 77.14444976 -75.04708862 77.14044189 C-75.78101463 77.14341302 -76.51494065 77.14638414 -77.27110684 77.1494453 C-79.74308652 77.15815272 -82.21501789 77.15964226 -84.68701172 77.16113281 C-86.45419417 77.16575952 -88.22137563 77.17078398 -89.98855591 77.17617798 C-94.79846963 77.18931761 -99.60836938 77.1957499 -104.41829824 77.20018864 C-107.4211213 77.20311665 -110.4239405 77.20722092 -113.42676163 77.21169281 C-122.81549305 77.22537142 -132.20421572 77.23503648 -141.59295642 77.2388947 C-152.44290852 77.24337749 -163.29273476 77.26093409 -174.14264858 77.2898953 C-182.52145329 77.31148672 -190.90022252 77.32159761 -199.27905476 77.32293582 C-204.28706705 77.32398561 -209.2949611 77.32993031 -214.30294418 77.34775543 C-219.01265795 77.36419244 -223.72216404 77.36641297 -228.43189621 77.35761642 C-230.16210993 77.35684372 -231.89233462 77.3612194 -233.62252045 77.37107468 C-235.981578 77.38372577 -238.33989237 77.3779552 -240.69894409 77.36749268 C-241.38629918 77.37554908 -242.07365427 77.38360548 -242.7818383 77.39190602 C-245.76643523 77.36087127 -247.76636526 77.13034076 -250.39381599 75.66453171 C-253.77290242 72.16269351 -253.11765023 67.85603046 -253.0625 63.3125 C-253.05798828 62.61060547 -253.05347656 61.90871094 -253.04882812 61.18554688 C-253.03706927 59.45699462 -253.01913454 57.72848635 -253 56 C-252.15755328 55.99761165 -251.31510656 55.99522329 -250.44713116 55.99276257 C-229.9668725 55.93367647 -209.48673214 55.85816759 -189.00660229 55.76428509 C-179.10263824 55.71928233 -169.19871052 55.67987808 -159.29467773 55.65356445 C-150.66427344 55.63062058 -142.03398367 55.59726321 -133.40367013 55.55129844 C-128.83220318 55.52731734 -124.26084998 55.50862068 -119.68932152 55.50238609 C-115.38913465 55.49635723 -111.08923903 55.47643769 -106.78915977 55.44572449 C-105.20852171 55.43690882 -103.62784565 55.43322894 -102.04718399 55.43499184 C-99.89339534 55.43663594 -97.74050372 55.42002114 -95.58683777 55.39872742 C-94.38021075 55.39411845 -93.17358374 55.38950949 -91.93039227 55.38476086 C-89.02974559 55.22739518 -89.02974559 55.22739518 -87.11038685 53.71516132 C-85.10755965 50.62149018 -85.6236983 46.92062363 -85.6640625 43.3515625 C-85.651549 41.60676712 -85.63851183 39.86197543 -85.625 38.1171875 C-85.62107075 35.36965876 -85.62501335 32.62249401 -85.63964844 29.875 C-85.64822882 27.22080315 -85.6265188 24.56812571 -85.6015625 21.9140625 C-85.61490631 21.0962027 -85.62825012 20.2783429 -85.64199829 19.43569946 C-85.62705826 18.27957657 -85.62705826 18.27957657 -85.61181641 17.10009766 C-85.61539658 16.09107895 -85.61539658 16.09107895 -85.61904907 15.06167603 C-84.59811162 11.66155418 -82.76273925 10.15644747 -80 8 C-76.57835388 7.38095093 -76.57835388 7.38095093 -72.61108398 7.38818359 C-71.88526123 7.38251877 -71.15943848 7.37685394 -70.41162109 7.37101746 C-68.02257993 7.35755891 -65.63506765 7.37842629 -63.24609375 7.3984375 C-61.58129336 7.39293593 -59.91649976 7.38481005 -58.25172424 7.37417603 C-53.87521887 7.35130703 -49.49921333 7.35550509 -45.12268066 7.36798096 C-38.1144889 7.38630032 -31.10658878 7.37635063 -24.09846687 7.34212112 C-21.65204347 7.33601475 -19.20624661 7.34927821 -16.75987244 7.36410522 C-15.2597538 7.36115737 -13.75963634 7.35750278 -12.25952148 7.35302734 C-10.29691628 7.35899429 -10.29691628 7.35899429 -8.29466248 7.36508179 C-4.81959483 6.98000929 -3.42859117 6.46136502 -1 4 C-0.20376178 1.90584196 -0.20376178 1.90584196 0 0 Z " fill="#B3E59E" transform="translate(417,125)"/>
<path d="M0 0 C2.39652528 -0.08139142 4.79025436 -0.14067009 7.1875 -0.1875 C8.19780273 -0.22520508 8.19780273 -0.22520508 9.22851562 -0.26367188 C13.6903649 -0.32896723 16.55500276 0.09662938 20 3 C22.51561443 7.19642454 22.28971001 11.66998887 22.2746582 16.42700195 C22.27976913 17.26344238 22.28488007 18.09988281 22.29014587 18.96166992 C22.30401984 21.72061363 22.30308644 24.47930684 22.30078125 27.23828125 C22.30467002 29.16253247 22.30900506 31.08678284 22.31376648 33.0110321 C22.32122444 37.04343447 22.32094094 41.07574928 22.31567383 45.1081543 C22.30988659 50.2628546 22.32679426 55.41719472 22.3500185 60.57183552 C22.36478891 64.54652485 22.36562292 68.52112816 22.36250877 72.49584007 C22.36302055 74.39554748 22.36823115 76.29525988 22.37832069 78.19494057 C22.39072891 80.85846594 22.38386683 83.52129923 22.37231445 86.18481445 C22.37995819 86.96171127 22.38760193 87.73860809 22.39547729 88.53904724 C22.34114664 94.23834487 21.59140784 100.20339263 17.54808521 104.56688404 C12.93532218 108.49236813 10.35071753 109.12794446 4.39743042 109.1673584 C3.71124575 109.17315178 3.02506108 109.17894517 2.31808293 109.18491411 C0.00747232 109.20302216 -2.30311378 109.21385951 -4.61376953 109.22460938 C-6.26609013 109.23578168 -7.91840846 109.24729491 -9.57072449 109.25912476 C-15.00805496 109.29572401 -20.44540881 109.3209095 -25.8828125 109.34375 C-26.80773042 109.34769587 -27.73264834 109.35164173 -28.68559408 109.35570717 C-37.40849533 109.39213176 -46.13140463 109.42357794 -54.85435677 109.44481659 C-66.01253953 109.4723851 -77.17008616 109.52313209 -88.328004 109.60529089 C-96.1726841 109.66109676 -104.01719169 109.69005484 -111.86206329 109.6992898 C-116.54742266 109.70554582 -121.23203661 109.72365338 -125.91717911 109.77067566 C-130.32840373 109.81439893 -134.73847683 109.82481353 -139.14988136 109.81004715 C-140.76557949 109.81037537 -142.38132767 109.82261826 -143.99682808 109.84789658 C-157.7055231 110.05101121 -157.7055231 110.05101121 -162.93063354 105.63293457 C-168.09986317 100.18525805 -168.05841408 95.11921558 -168 88 C-167.15755328 87.99761165 -166.31510656 87.99522329 -165.44713116 87.99276257 C-144.9668725 87.93367647 -124.48673214 87.85816759 -104.00660229 87.76428509 C-94.10263824 87.71928233 -84.19871052 87.67987808 -74.29467773 87.65356445 C-65.66427344 87.63062058 -57.03398367 87.59726321 -48.40367013 87.55129844 C-43.83220318 87.52731734 -39.26084998 87.50862068 -34.68932152 87.50238609 C-30.38913465 87.49635723 -26.08923903 87.47643769 -21.78915977 87.44572449 C-20.20852171 87.43690882 -18.62784565 87.43322894 -17.04718399 87.43499184 C-14.89339534 87.43663594 -12.74050372 87.42002114 -10.58683777 87.39872742 C-9.38021075 87.39411845 -8.17358374 87.38950949 -6.93039227 87.38476086 C-4.0264075 87.23017794 -4.0264075 87.23017794 -2.1132431 85.69693756 C-0.1803006 82.75051667 -0.56130725 79.35992651 -0.56762695 75.94848633 C-0.5574353 75.12874832 -0.54724365 74.30901031 -0.53674316 73.46443176 C-0.50653686 70.75356276 -0.49733568 68.04304665 -0.48828125 65.33203125 C-0.47144021 63.45300617 -0.45329075 61.5739924 -0.43388367 59.69499207 C-0.38631509 54.74829643 -0.35655013 49.80164662 -0.33044434 44.85479736 C-0.30067337 39.80740302 -0.25413118 34.76016671 -0.20898438 29.71289062 C-0.12287327 19.80867629 -0.05556275 9.90442951 0 0 Z " fill="#B3E59E" transform="translate(332,403)"/>
<path d="M0 0 C4.3636805 3.82649892 7.59419762 8.34551291 10.9375 13.0625 C11.48946045 13.83384277 12.0414209 14.60518555 12.61010742 15.39990234 C19.14183222 24.55145957 25.57777028 33.77140558 32 43 C35.6502999 39.64544199 38.26022832 35.90203041 41 31.8125 C41.96912114 30.3847843 42.93920837 28.95772401 43.91015625 27.53125 C44.41305176 26.79132813 44.91594727 26.05140625 45.43408203 25.2890625 C48.06759562 21.43938625 50.74949861 17.62424918 53.4375 13.8125 C53.93314453 13.10649658 54.42878906 12.40049316 54.93945312 11.6730957 C62.18392212 1.40803894 62.18392212 1.40803894 65 0 C68.65546065 -0.40616229 70.58917682 -0.21434253 73.875 1.5 C76.33256249 4.39124999 76.47651429 6.11395098 76.36572266 9.84619141 C75.71115893 13.70103869 73.57291879 16.37589773 71.25 19.4375 C70.75773926 20.11852783 70.26547852 20.79955566 69.75830078 21.5012207 C68.71556483 22.94292079 67.66541837 24.37928649 66.60839844 25.81054688 C63.97422727 29.39634636 61.43017162 33.04520551 58.875 36.6875 C56.01966724 40.75600098 53.15618492 44.80991312 50.171875 48.78515625 C49.52436279 49.66651245 49.52436279 49.66651245 48.86376953 50.56567383 C47.70501447 52.14120618 46.5289017 53.70393108 45.3515625 55.265625 C43.72745405 57.86301885 43.72745405 57.86301885 44.4453125 60.38671875 C46.54358393 63.91371269 48.84171859 67.24099951 51.25 70.5625 C52.33514048 72.07906583 53.41975377 73.59600897 54.50390625 75.11328125 C55.07383301 75.90814941 55.64375977 76.70301758 56.23095703 77.52197266 C59.84888283 82.58986485 63.41022178 87.6977359 66.96850586 92.80761719 C69.56407586 96.53313479 72.16716599 100.24796783 74.8515625 103.91015625 C75.27284424 104.49313477 75.69412598 105.07611328 76.12817383 105.67675781 C77.21860782 107.18282001 78.32161951 108.67975435 79.42578125 110.17578125 C81.29661103 113.53213343 81.80231045 116.17650446 82 120 C80.09266488 123.50949663 78.84861588 124.71110949 75.0625 126 C71.27615896 126 70.05122635 125.21907371 67 123 C65.20734238 120.86260053 63.5948165 118.774701 62 116.5 C61.53215088 115.84781494 61.06430176 115.19562988 60.58227539 114.52368164 C56.23018993 108.4195973 52.00963219 102.22243288 47.79614258 96.0222168 C42.97673484 88.93255146 38.02104602 81.94785826 33 75 C28.72907247 78.82080526 25.72575541 83.49778535 22.5 88.1875 C21.24894815 89.98975706 19.99764156 91.79183731 18.74609375 93.59375 C18.11944824 94.49867188 17.49280273 95.40359375 16.84716797 96.3359375 C12.69051709 102.33083235 8.49633938 108.29814631 4.25292969 114.23193359 C3.13143037 115.81453259 2.0365278 117.41590116 0.9453125 119.01953125 C-3.08370439 124.70492175 -3.08370439 124.70492175 -7.6875 126.1875 C-10.85181764 126.00838768 -12.48020131 125.86651755 -15 124 C-17.57152759 120.14270861 -17.60786188 118.59580422 -17 114 C-15.24683686 110.628883 -13.02432349 107.6612661 -10.75 104.625 C-10.11465332 103.7486792 -9.47930664 102.8723584 -8.82470703 101.96948242 C-7.51912759 100.16873372 -6.20742092 98.37241161 -4.88964844 96.58056641 C-1.67057123 92.1844881 1.44318693 87.71484618 4.56787109 83.25146484 C7.15374281 79.57193946 9.78458306 75.93683174 12.484375 72.33984375 C13.05140137 71.5718042 13.61842773 70.80376465 14.20263672 70.01245117 C15.29353064 68.53663891 16.39877716 67.07129736 17.52001953 65.6184082 C20.37056067 61.9476072 20.37056067 61.9476072 20.69140625 57.53515625 C18.23282083 53.85011713 15.70449797 50.24372882 13.0625 46.6875 C11.88393955 45.07920639 10.70688437 43.46980876 9.53125 41.859375 C8.93957031 41.04919922 8.34789062 40.23902344 7.73828125 39.40429688 C4.19313327 34.50083938 0.78379556 29.50539166 -2.609375 24.49609375 C-4.03872867 22.3864987 -5.49538124 20.3327714 -7.015625 18.28515625 C-9.57120456 14.79213279 -11.36665961 12.07499231 -11.6875 7.6875 C-11 4 -11 4 -8.875 1.5 C-5.46714413 -0.27801176 -3.78454468 -0.70960213 0 0 Z " fill="#F1CD88" transform="translate(173,240)"/>
<path d="M0 0 C1.15226326 -0.01395813 1.15226326 -0.01395813 2.32780457 -0.02819824 C3.14557877 -0.01180298 3.96335297 0.00459229 4.8059082 0.02148438 C5.66295853 0.02144409 6.52000885 0.02140381 7.4030304 0.0213623 C9.2143996 0.02671301 11.02576856 0.04427673 12.83691406 0.07324219 C15.58057399 0.11483844 18.32175379 0.11432792 21.06567383 0.10742188 C35.06281768 0.15763778 47.10129467 1.63795602 57.92700195 11.43164062 C66.78326644 20.92049543 69.43336493 30.87283563 69.19262695 43.49804688 C68.69634589 54.21476963 63.41062806 62.28220265 55.88793945 69.58789062 C45.61428456 78.35399833 34.20015404 79.19791314 21.16918945 78.86523438 C19.7785906 78.84510899 18.38796314 78.82686904 16.99731445 78.81054688 C13.63718708 78.76387844 10.27857724 78.69841922 6.91918945 78.61523438 C6.9348999 79.89688477 6.95061035 81.17853516 6.96679688 82.49902344 C7.02110501 87.25498162 7.05554287 92.0109124 7.08398438 96.76708984 C7.09906895 98.82540496 7.11953933 100.88368795 7.14550781 102.94189453 C7.18190531 105.90079681 7.19891912 108.85927405 7.2121582 111.81835938 C7.22764206 112.73828674 7.24312592 113.65821411 7.25907898 114.60601807 C7.26074804 120.94504 7.26074804 120.94504 5.61572266 124.17285156 C2.90318093 126.479039 0.39836778 126.49315794 -3.08081055 126.61523438 C-6.47889081 125.51315429 -7.02812972 124.69425562 -9.08081055 121.61523438 C-9.34087276 119.44844246 -9.34087276 119.44844246 -9.35496521 116.88430786 C-9.36494034 115.9113678 -9.37491547 114.93842773 -9.38519287 113.93600464 C-9.38585754 112.86996002 -9.38652222 111.80391541 -9.38720703 110.70556641 C-9.39553055 109.58174561 -9.40385406 108.4579248 -9.41242981 107.30004883 C-9.43658208 103.57434657 -9.44530822 99.84881919 -9.4519043 96.12304688 C-9.46086631 93.53856349 -9.46998807 90.95408066 -9.47926331 88.36959839 C-9.49576987 82.94739164 -9.50348967 77.52525556 -9.50634766 72.10302734 C-9.50998274 65.8391044 -9.53987536 59.57567151 -9.58175224 53.31189835 C-9.62064253 47.28319423 -9.63194049 41.25476163 -9.63307381 35.22591782 C-9.63728611 32.66222348 -9.6497605 30.09852909 -9.67059135 27.53491592 C-9.69739699 23.95073839 -9.69271129 20.36791744 -9.68017578 16.78369141 C-9.69501007 15.72169525 -9.70984436 14.6596991 -9.72512817 13.56552124 C-9.67766859 8.80879355 -9.64274597 6.39313062 -6.79840088 2.45565796 C-4.18701075 0.68715594 -3.07801164 -0.00944765 0 0 Z M6.91918945 16.61523438 C6.73643498 31.96661049 7.30293383 47.27768098 7.91918945 62.61523438 C11.68975114 62.73322042 15.4598271 62.80307302 19.23168945 62.86523438 C20.28420898 62.89875 21.33672852 62.93226563 22.42114258 62.96679688 C30.55170127 63.06686529 38.71638318 62.19586734 45.12744141 56.73388672 C49.69767655 51.96749078 52.70377553 46.82926934 53.04418945 40.16992188 C52.69149034 32.96163376 50.25674725 27.88734986 45.1262207 22.85742188 C37.04864446 16.18253851 27.95206574 16.32463199 17.85668945 16.49023438 C16.80030273 16.49925781 15.74391602 16.50828125 14.65551758 16.51757812 C12.07649693 16.54091768 9.49796955 16.57365662 6.91918945 16.61523438 Z " fill="#F1CD88" transform="translate(292.080810546875,239.384765625)"/>
<path d="M0 0 C1.93579102 0.12475586 1.93579102 0.12475586 4 1 C8.89473946 10.13035002 10.02074819 22.07311207 12.00268555 32.18286133 C12.43267268 34.36185984 12.87406383 36.5383253 13.31640625 38.71484375 C13.56849854 39.99480225 13.82059082 41.27476074 14.08032227 42.59350586 C14.97868959 45.92106607 15.95456329 48.23964109 18 51 C20.99279455 52.48410092 20.99279455 52.48410092 24.5625 53.4375 C25.90249181 53.84977949 27.24232853 54.26256332 28.58203125 54.67578125 C29.29311035 54.88799316 30.00418945 55.10020508 30.73681641 55.31884766 C34.76007306 56.52973073 38.75512291 57.82412592 42.75 59.125 C43.5241626 59.36661865 44.2983252 59.6082373 45.09594727 59.85717773 C48.83106142 61.06741272 51.37619716 62.082307 54 65 C52.34283824 68.91104443 50.41735629 70.22474425 46.54101562 72.02197266 C40.29634126 74.4255243 33.693101 75.9630693 27.203125 77.56054688 C21.25468419 79.1127448 21.25468419 79.1127448 16.4375 82.69580078 C15.23325342 85.11761014 14.6053881 87.35958682 14 90 C13.5683252 91.81890747 13.5683252 91.81890747 13.12792969 93.67456055 C12.16561857 97.93324215 11.32638302 102.21319709 10.5 106.5 C7.13748933 123.94278395 7.13748933 123.94278395 3 132 C1.68 132 0.36 132 -1 132 C-4.95149093 122.45465072 -7.03816675 112.62250395 -9.1875 102.5625 C-9.54551023 100.9119544 -9.90422945 99.26156242 -10.26367188 97.61132812 C-10.76818739 95.29468606 -11.27171037 92.97788582 -11.76957703 90.6598053 C-12.17518005 88.77222271 -12.58723438 86.88602927 -13 85 C-13.11110107 84.20907959 -13.22220215 83.41815918 -13.33666992 82.60327148 C-13.87356348 80.8073151 -13.87356348 80.8073151 -15.86767578 80.07617188 C-16.6770459 79.87572266 -17.48641602 79.67527344 -18.3203125 79.46875 C-19.22555664 79.23027344 -20.13080078 78.99179687 -21.06347656 78.74609375 C-22.0325293 78.49988281 -23.00158203 78.25367188 -24 78 C-25.95816379 77.43546066 -27.91388815 76.86239691 -29.8671875 76.28125 C-30.85460937 75.98863281 -31.84203125 75.69601562 -32.859375 75.39453125 C-33.85453125 75.09933594 -34.8496875 74.80414063 -35.875 74.5 C-37.40253906 74.05720703 -37.40253906 74.05720703 -38.9609375 73.60546875 C-39.940625 73.31285156 -40.9203125 73.02023437 -41.9296875 72.71875 C-43.24815674 72.33106445 -43.24815674 72.33106445 -44.59326172 71.93554688 C-47.11929638 70.95362713 -48.92026288 69.72074565 -51 68 C-50.83203125 65.65234375 -50.83203125 65.65234375 -50 63 C-47.76171875 61.62890625 -47.76171875 61.62890625 -44.6875 60.5625 C-43.52863281 60.15515625 -42.36976563 59.7478125 -41.17578125 59.328125 C-35.39351477 57.45341135 -29.56295741 55.72129484 -23.7175293 54.05493164 C-22.890354 53.81637451 -22.06317871 53.57781738 -21.2109375 53.33203125 C-20.10177979 53.01842651 -20.10177979 53.01842651 -18.97021484 52.69848633 C-16.72349666 51.99245795 -16.72349666 51.99245795 -14 50 C-12.9435742 47.39627353 -12.9435742 47.39627353 -12.1875 44.125 C-12.02644775 43.49730713 -11.86539551 42.86961426 -11.69946289 42.22290039 C-10.52326869 37.50233938 -9.51443098 32.74912934 -8.515625 27.98828125 C-8.25499268 26.74739746 -7.99436035 25.50651367 -7.72583008 24.22802734 C-7.20608545 21.72893938 -6.69529188 19.22797072 -6.1940918 16.72509766 C-5.95343994 15.55640137 -5.71278809 14.38770508 -5.46484375 13.18359375 C-5.254646 12.13743896 -5.04444824 11.09128418 -4.82788086 10.01342773 C-3.86002833 6.49051302 -2.64212854 2.64212854 0 0 Z " fill="#F4DAA7" transform="translate(445,288)"/>
<path d="M0 0 C1.8125 0.125 1.8125 0.125 4 1 C6.78383467 5.64256448 7.89942388 10.20222361 8.9375 15.43359375 C9.1037085 16.22975601 9.26991699 17.02591827 9.44116211 17.84620667 C9.96869474 20.37507707 10.48553215 22.90594175 11 25.4375 C11.51480525 27.96540626 12.03222642 30.49260679 12.55883789 33.01808167 C12.88531088 34.58381283 13.2052254 36.15093155 13.51733398 37.71958923 C15.00123594 45.91017383 15.00123594 45.91017383 19.75488281 52.26611328 C20.39780273 52.44899902 21.04072266 52.63188477 21.703125 52.8203125 C22.42943115 53.04299805 23.1557373 53.26568359 23.90405273 53.49511719 C24.67821533 53.70297852 25.45237793 53.91083984 26.25 54.125 C27.87117811 54.61169826 29.49227044 55.09868233 31.11328125 55.5859375 C31.92877441 55.82022461 32.74426758 56.05451172 33.58447266 56.29589844 C37.23191672 57.35909115 40.83340935 58.54953433 44.4375 59.75 C45.63246094 60.13671875 46.82742187 60.5234375 48.05859375 60.921875 C51 62 51 62 54 64 C54 66.25 54 66.25 53 69 C45.29414112 73.58438038 36.69117827 75.59929837 28.11523438 78 C26.42430664 78.495 26.42430664 78.495 24.69921875 79 C23.67658936 79.28875 22.65395996 79.5775 21.6003418 79.875 C18.47768111 81.22597366 17.58222465 81.99174894 16 85 C15.09264028 87.92800049 14.46363838 90.89421125 13.84375 93.89453125 C13.65534546 94.76011154 13.46694092 95.62569183 13.27282715 96.51750183 C12.67228746 99.28053494 12.08500199 102.04613876 11.5 104.8125 C10.91395247 107.56788809 10.32484228 110.32247139 9.72717285 113.07536316 C9.35612761 114.78569568 8.99173511 116.49748984 8.63513184 118.21089172 C7.57346259 123.1202329 6.12919226 127.44729044 4 132 C2.35 131.67 0.7 131.34 -1 131 C-4.95981962 119.71626621 -7.56620199 108.29862252 -9.94384766 96.58691406 C-10.18280762 95.41999023 -10.42176758 94.25306641 -10.66796875 93.05078125 C-10.87703857 92.00575439 -11.0861084 90.96072754 -11.30151367 89.8840332 C-12.38217918 84.52172836 -12.38217918 84.52172836 -15.96533203 80.75976562 C-16.76310059 80.47810547 -17.56086914 80.19644531 -18.3828125 79.90625 C-19.2790332 79.58527344 -20.17525391 79.26429688 -21.09863281 78.93359375 C-27.01348514 77.03032925 -32.97360019 75.3043121 -38.9609375 73.64453125 C-39.940625 73.35964844 -40.9203125 73.07476562 -41.9296875 72.78125 C-42.80866699 72.53439453 -43.68764648 72.28753906 -44.59326172 72.03320312 C-47.40409435 70.82652391 -48.97956842 69.26719737 -51 67 C-50.44140625 65.18359375 -50.44140625 65.18359375 -49 63 C-46.61931179 61.8261676 -44.43008057 60.91680355 -41.9375 60.0625 C-40.88622925 59.68508667 -40.88622925 59.68508667 -39.8137207 59.30004883 C-33.10452345 56.93633674 -26.29160115 54.91877681 -19.44921875 52.98046875 C-17.28609547 52.3655832 -15.13341695 51.71113898 -13 51 C-12.22852612 48.51239036 -11.67455195 46.1729956 -11.1875 43.625 C-10.84954563 41.99727379 -10.51096171 40.3696782 -10.171875 38.7421875 C-9.98818359 37.83823242 -9.80449219 36.93427734 -9.61523438 36.00292969 C-8.43495453 30.24203994 -7.18792568 24.4959945 -5.9375 18.75 C-5.56951294 17.00130615 -5.56951294 17.00130615 -5.1940918 15.21728516 C-4.00451544 9.73973804 -2.88779799 4.83299129 0 0 Z " fill="#F4DAA7" transform="translate(53,226)"/>
<path d="M0 0 C3.1850357 1.76015131 3.83296972 2.49890916 5 6 C5.08021999 7.40824893 5.10765977 8.81997231 5.09765625 10.23046875 C5.09443359 11.03291016 5.09121094 11.83535156 5.08789062 12.66210938 C5.07532227 13.91217773 5.07532227 13.91217773 5.0625 15.1875 C5.05798828 16.03248047 5.05347656 16.87746094 5.04882812 17.74804688 C5.03705403 19.83206155 5.0191189 21.91603977 5 24 C5.96421875 23.95359375 6.9284375 23.9071875 7.921875 23.859375 C9.18515625 23.82328125 10.4484375 23.7871875 11.75 23.75 C13.00296875 23.70359375 14.2559375 23.6571875 15.546875 23.609375 C19 24 19 24 21.39453125 25.83203125 C23.47862442 28.64631764 23.92864647 30.5036772 24 34 C21.86956522 38.56521739 21.86956522 38.56521739 19 40 C16.62597499 40.07116382 14.24999323 40.08409085 11.875 40.0625 C10.59367187 40.05347656 9.31234375 40.04445313 7.9921875 40.03515625 C6.51105469 40.01775391 6.51105469 40.01775391 5 40 C5.05220703 41.86205078 5.05220703 41.86205078 5.10546875 43.76171875 C5.13361584 45.40363226 5.16091501 47.04556046 5.1875 48.6875 C5.21263672 49.50412109 5.23777344 50.32074219 5.26367188 51.16210938 C5.32170486 55.94015822 5.14903871 59.13423093 2 63 C-1.05693322 64.52846661 -3.62984547 64.23242445 -7 64 C-10.1850357 62.23984869 -10.83296972 61.50109084 -12 58 C-12.08021999 56.59175107 -12.10765977 55.18002769 -12.09765625 53.76953125 C-12.09443359 52.96708984 -12.09121094 52.16464844 -12.08789062 51.33789062 C-12.07951172 50.50451172 -12.07113281 49.67113281 -12.0625 48.8125 C-12.05798828 47.96751953 -12.05347656 47.12253906 -12.04882812 46.25195312 C-12.03705403 44.16793845 -12.0191189 42.08396023 -12 40 C-13.44632813 40.06960938 -13.44632813 40.06960938 -14.921875 40.140625 C-16.18515625 40.17671875 -17.4484375 40.2128125 -18.75 40.25 C-20.00296875 40.29640625 -21.2559375 40.3428125 -22.546875 40.390625 C-26 40 -26 40 -28.39453125 38.1328125 C-30.31341419 35.58363954 -30.92386313 34.19774841 -31 31 C-28.72289157 25.36144578 -28.72289157 25.36144578 -26 24 C-23.62597499 23.92883618 -21.24999323 23.91590915 -18.875 23.9375 C-17.59367187 23.94652344 -16.31234375 23.95554687 -14.9921875 23.96484375 C-14.00476563 23.97644531 -13.01734375 23.98804688 -12 24 C-12.03480469 22.75863281 -12.06960937 21.51726562 -12.10546875 20.23828125 C-12.13361584 18.59636774 -12.16091501 16.95443954 -12.1875 15.3125 C-12.21263672 14.49587891 -12.23777344 13.67925781 -12.26367188 12.83789062 C-12.32170486 8.05984178 -12.14903871 4.86576907 -9 1 C-5.94306678 -0.52846661 -3.37015453 -0.23242445 0 0 Z " fill="#CCF49F" transform="translate(118,345)"/>
<path d="M0 0 C0.66 -0.0103125 1.32 -0.020625 2 -0.03125 C5.15312765 0.80629953 6.15596991 1.77475199 8 4.5 C8.48952097 7.92968726 8.37582359 11.29469075 8.25 14.75 C8.23195313 15.68585938 8.21390625 16.62171875 8.1953125 17.5859375 C8.14825673 19.89167015 8.08253713 22.19530945 8 24.5 C9.03640625 24.45359375 10.0728125 24.4071875 11.140625 24.359375 C12.51038779 24.32184725 13.88018182 24.28544816 15.25 24.25 C16.27287109 24.19972656 16.27287109 24.19972656 17.31640625 24.1484375 C20.75999054 24.08157179 22.64050979 24.23568583 25.44921875 26.30078125 C27.74189071 29.55210194 27.61303921 31.61741832 27 35.5 C25.375 38.4375 25.375 38.4375 22 40.5 C17.30405924 40.91481696 12.70106938 40.78626268 8 40.5 C8.02618408 41.08491211 8.05236816 41.66982422 8.0793457 42.27246094 C8.18349756 44.93136566 8.24837772 47.58984144 8.3125 50.25 C8.35439453 51.17039063 8.39628906 52.09078125 8.43945312 53.0390625 C8.5632155 59.87074583 8.5632155 59.87074583 5.66796875 63.10546875 C2.37275954 64.82785482 0.6655138 65.18728384 -3 64.5 C-5.85112231 62.44619008 -7.74919251 60.87119294 -8.40087891 57.30834961 C-8.49200848 54.75086689 -8.4363905 52.24345635 -8.3125 49.6875 C-8.28994141 48.80384766 -8.26738281 47.92019531 -8.24414062 47.00976562 C-8.18547428 44.8391109 -8.09579979 42.6693331 -8 40.5 C-8.95261719 40.55800781 -9.90523438 40.61601562 -10.88671875 40.67578125 C-21.13530825 41.04443555 -21.13530825 41.04443555 -25.375 38.375 C-27.30285153 34.96418575 -27.72222637 33.35187398 -27 29.5 C-25.44921875 26.83203125 -25.44921875 26.83203125 -23 24.5 C-20.18760674 24.12601153 -18.02407845 24.01706985 -15.25 24.1875 C-14.55261719 24.21005859 -13.85523438 24.23261719 -13.13671875 24.25585938 C-11.42355065 24.31452952 -9.71149377 24.40420744 -8 24.5 C-8.02094727 23.91508789 -8.04189453 23.33017578 -8.06347656 22.72753906 C-8.14680115 20.06853535 -8.19870897 17.40980645 -8.25 14.75 C-8.28351563 13.82960937 -8.31703125 12.90921875 -8.3515625 11.9609375 C-8.45005258 5.16512196 -8.45005258 5.16512196 -6.234375 1.890625 C-3.90397303 0.44023496 -2.71714866 -0.04245545 0 0 Z " fill="#F3DAA6" transform="translate(422,193.5)"/>
<path d="M0 0 C8.66651936 -0.11586396 17.33277205 -0.20469927 25.999897 -0.25906086 C30.02446096 -0.28515231 34.04849497 -0.32054057 38.07275391 -0.37719727 C41.9566544 -0.43153552 45.84004529 -0.46142394 49.72429657 -0.47438622 C51.20593031 -0.48362306 52.68753624 -0.50166111 54.16895294 -0.52865028 C56.2450835 -0.564969 58.31911056 -0.56994481 60.39550781 -0.56762695 C61.57687317 -0.57873001 62.75823853 -0.58983307 63.97540283 -0.60127258 C67 0 67 0 69.3883667 2.28620911 C70.93862444 4.89665115 71.48674694 6.03253152 71.390625 8.98828125 C71.37773437 9.69404297 71.36484375 10.39980469 71.3515625 11.12695312 C71.31804687 11.84818359 71.28453125 12.56941406 71.25 13.3125 C71.23195313 14.05306641 71.21390625 14.79363281 71.1953125 15.55664062 C71.14847337 17.3716571 71.07673789 19.18600166 71 21 C63.55869747 21.06971429 56.11746614 21.12291946 48.67590237 21.15543652 C45.21993354 21.17104837 41.76418925 21.19220356 38.30834961 21.22631836 C34.32929228 21.26534939 30.35032378 21.27974632 26.37109375 21.29296875 C24.52226845 21.31619453 24.52226845 21.31619453 22.63609314 21.33988953 C15.6251869 21.34125823 9.75595671 21.30962105 4.2578125 16.46484375 C1.08633667 12.18881944 -0.1303149 10.16456225 -0.0625 4.875 C-0.05347656 3.96492187 -0.04445313 3.05484375 -0.03515625 2.1171875 C-0.02355469 1.41851562 -0.01195313 0.71984375 0 0 Z " fill="#B3E59E" transform="translate(94,133)"/>
<path d="M0 0 C3.82362952 2.15595613 5.8470156 4.34067307 7.75 8.375 C9.21172512 13.84631835 9.03543379 18.44801052 6.76953125 23.65234375 C4.47123374 27.53567403 0.78374064 29.62282061 -3.25 31.375 C-8.86361521 32.16090613 -13.49456407 31.61734268 -18.25 28.375 C-22.38798557 24.16973011 -24.40906972 21.03610361 -24.5625 15.125 C-24.50927779 10.03562631 -23.74801724 7.25118126 -20.25 3.375 C-14.16476427 -2.11655419 -7.52526279 -3.38988473 0 0 Z " fill="#F1CD88" transform="translate(116.25,207.625)"/>
<path d="M0 0 C4.71887174 3.77509739 6.96716093 7.44411313 8.05859375 13.34375 C8.32097015 18.2414428 7.00305624 22.67789776 3.75 26.390625 C-0.96284007 30.49079586 -5.14921799 31.16419043 -11.171875 31.09375 C-15.53837274 30.52533018 -18.57504116 28.66914754 -21.8125 25.75 C-25.65404354 20.7079741 -25.62120306 14.84707585 -24.8125 8.75 C-22.48665314 3.82993933 -19.49106392 1.43768565 -14.8125 -1.25 C-9.80572994 -2.91892335 -4.78837504 -2.12816668 0 0 Z " fill="#F1CD89" transform="translate(501.8125,240.25)"/>
<path d="M0 0 C2.57739298 3.86608947 2.21985564 5.9381776 1.67578125 10.421875 C0.40891888 15.25499155 -2.69484611 18.52196078 -6.83984375 21.1796875 C-9.58303915 22.22140727 -11.82449625 22.19465485 -14.75 22.125 C-15.73484375 22.10695312 -16.7196875 22.08890625 -17.734375 22.0703125 C-18.48203125 22.04710937 -19.2296875 22.02390625 -20 22 C-20.62329486 12.26967471 -20.62329486 12.26967471 -18.3125 7.5625 C-12.59732293 1.22946595 -8.35184265 -0.53027572 0 0 Z " fill="#F4DAA7" transform="translate(112,206)"/>
<path d="M0 0 C1.875 1.0625 1.875 1.0625 3 3 C3.59090309 8.21964395 2.86402782 11.60849068 0 16 C-3.12497285 19.09163981 -6.06913346 21.92752002 -10.6015625 22.09765625 C-12.09816406 22.08025391 -12.09816406 22.08025391 -13.625 22.0625 C-14.62789063 22.05347656 -15.63078125 22.04445313 -16.6640625 22.03515625 C-17.43492187 22.02355469 -18.20578125 22.01195312 -19 22 C-19.62054002 12.31268081 -19.62054002 12.31268081 -17.375 7.5625 C-12.37341893 2.16605726 -7.41444077 -0.61787006 0 0 Z " fill="#F4D9A6" transform="translate(496,238)"/>
<path d="M0 0 C2.64764845 1.67684402 2.95477045 2.85138861 3.875 5.875 C4.02524355 9.63108863 3.28344384 11.06414363 1 14 C-2 16 -2 16 -5.5 15.8125 C-9 15 -9 15 -10.875 13.875 C-12.67167343 10.88054428 -12.94016186 8.47061229 -13 5 C-9.23021184 -0.97966398 -6.77641513 -1.42661371 0 0 Z " fill="#CBF49F" transform="translate(49,171)"/>
<path d="M0 0 C3.4375 0.5625 3.4375 0.5625 5.8125 2.25 C7.67438689 4.89960827 8.36028899 6.31963747 8.4375 9.5625 C6.16039157 15.20105422 6.16039157 15.20105422 3.4375 16.5625 C-0.93612014 17.05762681 -2.88205244 17.05473866 -6.5 14.4375 C-8.5625 11.5625 -8.5625 11.5625 -9.1875 8.5625 C-8.06378731 3.1686791 -5.3834601 0.85002002 0 0 Z " fill="#CCF49E" transform="translate(478.5625,168.4375)"/>
<path d="M0 0 C3.8425303 0.72047443 5.45767292 1.57152696 8 4.5625 C8.94237143 8.56143269 8.61136591 11.54355682 6.5 15.0625 C2.9683809 17.18147146 0.01676563 17.36091448 -4 16.5625 C-6.5 15 -6.5 15 -8 12.5625 C-8.5625 9.125 -8.5625 9.125 -8 5.5625 C-5.54999553 2.17572911 -4.13607554 0.77551416 0 0 Z " fill="#F4DAA7" transform="translate(403,415.4375)"/>
</svg>
